<svg width="1430" height="1430" viewBox="0 0 1430 1430" fill="none" xmlns="http://www.w3.org/2000/svg">
<rect width="1430" height="1430" fill="#0A0A0A"/>
<path d="M700.405 520.933C704.701 551.524 700.982 733.003 700.405 742.924C699.828 752.846 699.329 772.164 689.66 774.756C671.697 779.57 660.751 753.692 642.548 735.483C616.513 709.44 572.756 693.817 554.937 687.943C518.57 675.955 404.923 632.268 392.525 625.108C383.578 619.941 376.63 614.36 366.903 599.478C359.877 588.729 353.447 556.898 350.372 531.268C347.298 505.638 345 458.438 345 451.07C345 446.999 345.826 439.908 351.199 429.16C355.497 420.562 360.704 415.105 368.143 409.731C382.668 398.753 400.213 385.754 405.336 382.447C410.459 379.14 416.081 376.525 424.759 377.073C492.397 381.345 630.729 396.75 656.186 420.892C681.643 445.035 696.109 490.342 700.405 520.933Z" fill="#FDB002"/>
<path d="M449.301 745.332C451.946 793.616 457.98 817.676 468.311 833.384C478.642 849.093 480.874 871.251 471.617 897.047C460.046 929.291 450.319 938.799 443.102 938.799C435.663 938.799 431.944 924.744 428.638 911.102C425.415 897.802 395.577 764.761 392.271 751.946C388.965 739.131 377.807 691.591 379.46 664.307C380.782 642.48 413.066 654.386 418.306 661C431.393 673.677 446.656 697.048 449.301 745.332Z" fill="#FDB002"/>
<path d="M492.693 901.18L475.337 945C469.607 959.052 461.647 989.968 465.831 1002.87C470.791 1018.17 507.702 1045.8 552.203 1071.5C593.116 1095.13 647.253 1105.26 672.876 1108.7C694.778 1111.65 703.044 1092.99 703.044 1040.49C703.044 924.743 704.697 872.529 698.084 864.388C687.34 851.16 666.677 854.054 636.509 880.924C606.34 907.794 570.232 902.883 552.203 897.873C537.326 893.739 526.168 885.058 513.77 882.577C503.852 880.593 495.586 894.152 492.693 901.18Z" fill="#FDB002"/>
<path d="M728.595 520.933C724.299 551.524 728.018 733.003 728.595 742.924C729.172 752.846 729.671 772.164 739.34 774.756C757.303 779.57 768.249 753.692 786.451 735.483C812.487 709.44 856.244 693.817 874.063 687.943C910.43 675.955 1024.08 632.268 1036.47 625.108C1045.42 619.941 1052.37 614.36 1062.1 599.478C1069.12 588.729 1075.55 556.898 1078.63 531.268C1081.7 505.638 1084 458.438 1084 451.07C1084 446.999 1083.17 439.908 1077.8 429.16C1073.5 420.562 1068.3 415.105 1060.86 409.731C1046.33 398.753 1028.79 385.754 1023.66 382.447C1018.54 379.14 1012.92 376.525 1004.24 377.073C936.603 381.345 798.271 396.75 772.814 420.892C747.357 445.035 732.891 490.342 728.595 520.933Z" fill="#FDB002"/>
<path d="M979.699 745.332C977.054 793.616 971.02 817.676 960.689 833.384C950.358 849.093 948.126 871.251 957.383 897.047C968.954 929.291 978.681 938.799 985.898 938.799C993.337 938.799 997.056 924.744 1000.36 911.102C1003.59 897.802 1033.42 764.761 1036.73 751.946C1040.04 739.131 1051.19 691.591 1049.54 664.307C1048.22 642.48 1015.93 654.386 1010.69 661C997.607 673.677 982.344 697.048 979.699 745.332Z" fill="#FDB002"/>
<path d="M936.307 901.18L953.663 945C959.393 959.052 967.353 989.968 963.168 1002.87C958.209 1018.17 921.298 1045.8 876.797 1071.5C835.884 1095.13 781.747 1105.26 756.124 1108.7C734.222 1111.65 725.956 1092.99 725.956 1040.49C725.956 924.743 724.303 872.529 730.916 864.388C741.66 851.16 762.323 854.054 792.491 880.924C822.66 907.794 858.768 902.883 876.797 897.873C891.674 893.739 902.832 885.058 915.23 882.577C925.148 880.593 933.414 894.152 936.307 901.18Z" fill="#FDB002"/>
<path d="M700.405 520.933C704.701 551.524 700.982 733.003 700.405 742.924C699.828 752.846 699.329 772.164 689.66 774.756C671.697 779.57 660.751 753.692 642.548 735.483C616.513 709.44 572.756 693.817 554.937 687.943C518.57 675.955 404.923 632.268 392.525 625.108C383.578 619.941 376.63 614.36 366.903 599.478C359.877 588.729 353.447 556.898 350.372 531.268C347.298 505.638 345 458.438 345 451.07C345 446.999 345.826 439.908 351.199 429.16C355.497 420.562 360.704 415.105 368.143 409.731C382.668 398.753 400.213 385.754 405.336 382.447C410.459 379.14 416.081 376.525 424.759 377.073C492.397 381.345 630.729 396.75 656.186 420.892C681.643 445.035 696.109 490.342 700.405 520.933Z" stroke="#FDB002" stroke-width="7"/>
<path d="M449.301 745.332C451.946 793.616 457.98 817.676 468.311 833.384C478.642 849.093 480.874 871.251 471.617 897.047C460.046 929.291 450.319 938.799 443.102 938.799C435.663 938.799 431.944 924.744 428.638 911.102C425.415 897.802 395.577 764.761 392.271 751.946C388.965 739.131 377.807 691.591 379.46 664.307C380.782 642.48 413.066 654.386 418.306 661C431.393 673.677 446.656 697.048 449.301 745.332Z" stroke="#FDB002" stroke-width="7"/>
<path d="M492.693 901.18L475.337 945C469.607 959.052 461.647 989.968 465.831 1002.87C470.791 1018.17 507.702 1045.8 552.203 1071.5C593.116 1095.13 647.253 1105.26 672.876 1108.7C694.778 1111.65 703.044 1092.99 703.044 1040.49C703.044 924.743 704.697 872.529 698.084 864.388C687.34 851.16 666.677 854.054 636.509 880.924C606.34 907.794 570.232 902.883 552.203 897.873C537.326 893.739 526.168 885.058 513.77 882.577C503.852 880.593 495.586 894.152 492.693 901.18Z" stroke="#FDB002" stroke-width="7"/>
<path d="M728.595 520.933C724.299 551.524 728.018 733.003 728.595 742.924C729.172 752.846 729.671 772.164 739.34 774.756C757.303 779.57 768.249 753.692 786.451 735.483C812.487 709.44 856.244 693.817 874.063 687.943C910.43 675.955 1024.08 632.268 1036.47 625.108C1045.42 619.941 1052.37 614.36 1062.1 599.478C1069.12 588.729 1075.55 556.898 1078.63 531.268C1081.7 505.638 1084 458.438 1084 451.07C1084 446.999 1083.17 439.908 1077.8 429.16C1073.5 420.562 1068.3 415.105 1060.86 409.731C1046.33 398.753 1028.79 385.754 1023.66 382.447C1018.54 379.14 1012.92 376.525 1004.24 377.073C936.603 381.345 798.271 396.75 772.814 420.892C747.357 445.035 732.891 490.342 728.595 520.933Z" stroke="#FDB002" stroke-width="7"/>
<path d="M979.699 745.332C977.054 793.616 971.02 817.676 960.689 833.384C950.358 849.093 948.126 871.251 957.383 897.047C968.954 929.291 978.681 938.799 985.898 938.799C993.337 938.799 997.056 924.744 1000.36 911.102C1003.59 897.802 1033.42 764.761 1036.73 751.946C1040.04 739.131 1051.19 691.591 1049.54 664.307C1048.22 642.48 1015.93 654.386 1010.69 661C997.607 673.677 982.344 697.048 979.699 745.332Z" stroke="#FDB002" stroke-width="7"/>
<path d="M936.307 901.18L953.663 945C959.393 959.052 967.353 989.968 963.168 1002.87C958.209 1018.17 921.298 1045.8 876.797 1071.5C835.884 1095.13 781.747 1105.26 756.124 1108.7C734.222 1111.65 725.956 1092.99 725.956 1040.49C725.956 924.743 724.303 872.529 730.916 864.388C741.66 851.16 762.323 854.054 792.491 880.924C822.66 907.794 858.768 902.883 876.797 897.873C891.674 893.739 902.832 885.058 915.23 882.577C925.148 880.593 933.414 894.152 936.307 901.18Z" stroke="#FDB002" stroke-width="7"/>
</svg>
